# xmcd
#
# Track frame offsets: 
#        150
#        21732
#        41078
#        66461
#        87745
#        113821
#        137099
#        164264
#        184099
#        207836
#        232492
#        252715
#        279772
#        302272
#        319785
#
# Disc length: 4543 seconds
#
# Revision: 0
# Processed by: cddbd v1.5.2PL0 Copyright (c) Steve Scherf et al.
# Submitted via: ExactAudioCopy v0.99pb5
#
DISCID=e511bd0f
DTITLE=Etta James  - The Essential [CD2]
DYEAR=2010
DGENRE=Blues
TTITLE0=Try A Little Tenderness
TTITLE1=Night And Day
TTITLE2=Come Rain Or Come Shine
TTITLE3=I'll Be Seeing You
TTITLE4=My Funny Valentine
TTITLE5=My Man
TTITLE6=Someone To Watch Over Me
TTITLE7=The Man I Love
TTITLE8=In My Solitude
TTITLE9=Good Morning Heartache
TTITLE10=The Very Thought Of You
TTITLE11=He's Funny That Way
TTITLE12=Teach Me Tonight
TTITLE13=Embraceable You
TTITLE14=At Last
EXTD=
EXTT0=
EXTT1=
EXTT2=
EXTT3=
EXTT4=
EXTT5=
EXTT6=
EXTT7=
EXTT8=
EXTT9=
EXTT10=
EXTT11=
EXTT12=
EXTT13=
EXTT14=
PLAYORDER=
